<svg version="1.0" xmlns="http://www.w3.org/2000/svg" width="400" height="389.333" viewBox="0 0 300 292"><g fill="#fff"><path d="M148.5 12.4c-.6 2.9-2.7 30.3-2.7 35 .1 2.1.4 4.1.7 4.5 1.2 1.1 17.9 1.9 19.3.8 1.5-1.2 1.6-4.9 0-6.5-.7-.7-3.6-1.2-6.5-1.2H154v-9h12v-3.4c0-3.8-1.2-4.6-6.9-4.6h-3.7l-.2-4.6-.2-4.6 5.8.3c6.8.4 8.2-.3 8.2-4.1 0-3.3-.8-3.5-13.3-4.3-6.2-.4-6.8-.3-7.2 1.7zm6 4.6c-1.4 1.5-2.1 1.7-2.6.8-1.1-1.7-.2-2.8 2.3-2.8 2.1 0 2.1.1.3 2zm1 13.9c.3.5-.8 1.9-2.4 3-2.6 1.9-2.9 1.9-2.6.4.2-1 .4-2.8.4-4.1.1-1.9.4-2.1 2-1.2 1.1.5 2.2 1.4 2.6 1.9zM154 48c0 .6-.9 1-2 1-1.3 0-2-.7-2-2 0-1.8.3-1.9 2-1 1.1.6 2 1.5 2 2zm-30-35.1c-.8.5-4.6 1.4-8.3 2.1-3.8.7-7.1 1.8-7.3 2.5-.3.6 1.3 8.8 3.6 18.2 2.2 9.3 4 17.8 4 18.7 0 .9.7 1.9 1.6 2.3 2 .7 17.1-2.6 18.3-4.1.5-.6.7-2.4.4-4-.6-2.7-.8-2.8-4.7-2.2-2.3.3-5.1.8-6.2 1.2-1.8.5-2.4-.1-3.7-4l-1.6-4.6 4.2-1c6.5-1.7 6.7-1.8 6.7-4.2 0-4.4-1.2-5-6.4-3.7-5.4 1.3-6.2.9-7.1-4.2l-.7-3.6 4.7-.8c2.6-.3 5.4-.9 6.1-1.2 1.7-.6 1.8-3.7.4-6.4-1.2-2.1-1.8-2.2-4-1zm-4 23.2c-.5.8-1.5 2.1-2.3 2.7-1.2 1-1.6.7-2.1-1.9-.8-4.1-.1-5 2.8-3.6 1.8.9 2.2 1.6 1.6 2.8zM79.5 29c-4.5 2.8-7.9 5.5-7.7 6.2.4 1.3 6.7 12.8 15 27 2.5 4.3 5 7.8 5.6 7.8 1.9-.1 4.6-2.7 4.6-4.5 0-.9-1.6-4.4-3.6-7.7-2-3.2-3.5-6.1-3.3-6.2.2-.2 2.3-1.5 4.7-3L99 46l-1.5-3c-.9-1.7-1.8-3-2.1-3-.2 0-2.2.9-4.4 2-5.1 2.6-5.7 2.5-7.5-1-2.1-4-1.9-4.6 1.3-5.9 1.5-.6 3.8-2 5.1-3 2.2-1.7 2.3-1.9.7-4.9-.9-1.8-2-3.2-2.4-3.1-.4 0-4.3 2.3-8.7 4.9zm7.6 18.3c2.1-.6 2.1-.5.4 2.7l-1.7 3.2-1.4-2.7c-.8-1.5-1.1-3.2-.7-3.8.5-.8.8-.8 1 0 .2.6 1.3.8 2.4.6zm119.8-18.2c-3.9 2.3-11.9 14.3-14.4 21.6-3.3 9.4 3.7 18.3 14.3 18.3 5 0 7-2 5.4-5.5-.9-2-1.9-2.5-5-2.5-2.8 0-4.5-.7-6.2-2.5-2.1-2.2-2.2-2.7-.9-5.7 2.4-5.9 9.4-16.8 11.1-17.4 2.6-.8 7.5 2.2 8.2 5.1.6 2.3 1.1 2.6 4.4 2.3 3.4-.3 3.7-.6 3.5-3.1-.3-4-4-8.7-8.7-10.8-5.2-2.4-7.3-2.3-11.7.2zm21.9 28.6c-12.2 12.5-13.9 15.4-11.8 20.9 1.6 4.1 5.7 8.2 9.7 9.5 5.5 1.8 9-.2 21.4-12 11-10.5 11.3-10.9 10.1-13.5-.6-1.4-2-2.6-2.9-2.6-1 .1-6.5 4.6-12.3 10-7.8 7.5-11.1 10-13.1 10-2.8 0-5.9-2.7-5.9-5.1 0-.8 5.2-6.6 11.5-12.8l11.6-11.4-2.2-2.4c-1.3-1.2-2.8-2.3-3.4-2.3-.6 0-6.3 5.3-12.7 11.7zm-182-3.3L40 61.6l7.8 7.5c23.9 23 21.9 21.4 24.7 19.5 1.4-.9 2.5-2.3 2.5-3.2 0-.9-2.5-3.9-5.7-6.8l-5.6-5.3 3.2-4c2.9-3.6 3.1-4.3 1.9-6.2-2.1-3.4-3.7-3.3-7.3.6l-3.4 3.7-2.8-2c-3.7-2.8-3.5-4.4 1.1-9.5l4-4.2-3-2.3c-1.6-1.3-3.1-2.3-3.4-2.3-.3.1-3.5 3.4-7.2 7.3zm14.4 17.1c-.2 1.9-.7 3.5-1.1 3.5-.4 0-1.9-1.3-3.4-2.8L54 69.3l2.9.5c1.6.2 3.2-.1 3.5-.7 1.1-1.7 1.2-1.3.8 2.4zm74.3-4c-11.8 2.4-18.7 4.6-26 8.3-20.1 10.1-34.7 25.8-43.7 47.2-4.6 10.9-5.8 17.5-5.8 32.5 0 14.8 1.1 21.3 5.7 33 18.9 47.9 74.3 69.9 121.1 48 10.3-4.8 19.2-11.5 27.3-20.5 9.2-10.1 14.4-18.8 19.1-32.4 3.2-9 4-12.7 4.5-21.5.5-10.6-.8-26.4-2.6-29.8-.5-1-2.2-5.1-3.7-9.2-7.6-20-23.1-36.9-42.9-47-15.6-7.9-38.4-11.6-53-8.6zm19.5 3.4c0 .6-.4 1.3-1 1.6-.5.3-.9 5.2-.9 11 0 5.7-.5 11.3-1.1 12.4-.6 1.2-.8 2.1-.5 2.1.3 0 .1.6-.5 1.2-.5.7-1.8 2.4-2.8 3.7-1.2 1.5-1.9 1.9-1.9 1-.2-7.5-3.2-16-6.5-18.3-3.6-2.6-5.4 0-6 8.7-.5 7.4-1.8 10.6-6.5 15.8-1.3 1.4-3.2 5.1-4.3 8.1-1.7 4.8-1.8 6.5-.9 11.3 1.1 6 4.1 12 6.5 12.9 2.5 1 5.4-1.6 5.4-4.8 0-3.1 1.2-2.9 1.7.4.5 3.4 5.1 12.8 7.3 15 1.2 1.2 2 2.3 1.8 2.5-.2.3-6.9.5-14.8.6-13.9.1-14.6.2-20.7 3.1-7.2 3.5-10.8 8-12.1 14.9-1.5 7.9 1.1 16.8 6.3 21.9 4.2 4.1 4.3 5.2.8 7.8-2.4 1.8-2.6 2.2-1.6 4.6 1.6 3.4 7.4 6.2 16.6 7.9 10.9 2.1 56.1 1.6 63.2-.7 6.1-1.9 11-4.9 12.4-7.4.8-1.5.6-2.3-1-3.8-1.7-1.5-3.6-1.9-10-1.8-4.5 0-7.9-.4-7.9-1 0-.5 1.4-3.4 3.1-6.5 3.5-6.2 7.1-15.9 6.4-17.1-.3-.5-.1-1 .4-1.2.4-.1 1.1-3.7 1.4-7.9.5-6.7.4-8-1.3-9.9-2.1-2.4-2.8-2.5-34.7-2.9-3-.1-4.3-.5-4.3-1.5 0-.8.5-1.6 1-1.8.6-.2 1.2-4.8 1.4-10.3.3-7.8.8-11 2.5-14.2 2.5-5.1 4.1-6.2 4.2-3.1.2 5.9 1.7 10.9 4.5 14.5 4.3 5.6 7.6 3.5 8.1-5 .4-8.7 1.1-10.7 5.7-17.1 6.5-9.1 7.7-18.6 3.6-27.2-2.9-5.8-5.7-7.5-8.1-4.5-.9 1.1-1.5 2.9-1.2 4 .3 1 .1 2.1-.5 2.5-.5.3-1.5-2-2.1-5.2-.7-3.1-2.6-8.1-4.1-11l-2.9-5.4 4.2.7c26.7 4.4 51.7 23.5 62.8 48 6.7 14.8 7.4 18.5 7.3 37.5 0 12.3-.4 18.4-1.4 20.5-.7 1.6-1.4 3.4-1.6 4-.5 2.1-6.7 16-7.3 16.5-.3.3-1.5 2.2-2.6 4.3-2.6 5-14.2 17.6-20.5 22.2-5.9 4.3-16.1 9.8-21.5 11.4-2.2.7-4.9 1.6-6 2.1-8.5 3.6-31.4 4.1-43.5 1.1-9.6-2.4-14.7-4.3-20.7-7.6-20.5-11.5-34-28.2-41.8-51.6-2.5-7.5-2.8-9.8-2.9-22.4-.1-7.7.2-15.4.5-17 1.6-7.1 2.2-9.3 4.2-14.5 8-20.4 20.7-35 39.7-45.4 8.7-4.7 15.1-6.8 31.5-10 4.2-.8 15.5-.6 15.5.3zm3.9 6.3c5.2 10.9 6 23.1 2 30.9-1.1 2.3-4 6.5-6.4 9.4-6.7 8.2-8.8 15-8.2 26.2.2 5.1.1 9.3-.3 9.3-.8 0-2.4-3.3-5.2-10.9-1.6-4.2-1.9-6.9-1.6-12.5.6-8.1 2.9-13.6 8.7-19.9 6.4-7 8.4-12 8.5-21.2.1-4.4-.3-9.7-.7-11.8-1.1-5 .6-4.8 3.2.5zM140 90.6c2.4 5.5 2.6 14 .5 19-.8 1.9-3.1 5.5-5.2 8-3.6 4.5-3.7 4.8-4.3 14.7l-.5 10.2-2.5-5c-1.9-3.8-2.5-6.6-2.5-11.7 0-5.9.3-7.1 3.2-11 8.4-11.2 9.5-14.5 8.3-23.6-.3-2.8-.3-5.2.2-5.2s1.8 2.1 2.8 4.6zm35 1.1c3 7.9 2.3 15.8-1.7 21.4-1.5 2.1-3.8 5.3-5 6.9-2.5 3.6-3.8 11.9-2.8 17.9.4 2.3.4 4.1.1 4.1-.3 0-1.7-2.3-3.2-5.2-2.2-4.4-2.6-6.1-2.2-11.9.3-6.2.7-7.2 4.9-12.6 6.2-7.9 7.2-10.9 6.7-19.3-.2-3.8 0-7 .3-7 .4 0 1.7 2.6 2.9 5.7zm8.8 76c-1.4 15.5-6.9 27.6-16.1 35.9-2.8 2.5-4.3 4.3-3.2 3.9 2.6-.9 6.7-1.3 18.8-1.9 7.5-.3 9.7-.1 9.7.9 0 1.8-8.5 5.2-16.1 6.4-8 1.3-48.4 1.4-56.2.1-6.8-1.1-17.5-5.7-16.1-6.9.5-.4 7-.5 14.4-.1 7.4.3 13.7.5 13.8.4.2-.1-1.1-1.6-3-3.3-2.9-2.6-4.1-3-9.1-3.1-3.2 0-7-.6-8.5-1.4-3.9-2.1-8.9-7.5-10.6-11.8-4.2-10.1 1.1-23.8 9.2-23.8 1.2 0 2.5-.7 2.8-1.5.5-1.3 5.4-1.5 35.8-1.5h35.2l-.8 7.7z"/><path d="M108.5 170.2c-6.1 5.3-3.3 17.8 5.1 22.5 2.1 1.3 5.1 2.3 6.5 2.3h2.6l-2.9-5.9c-1.6-3.2-3.5-9.1-4.2-13.2-1.4-8.4-2.7-9.4-7.1-5.7zm3.3 6c0 .7.7 3.7 1.5 6.5.9 2.9 1.3 5.3 1 5.3-.3 0-1.6-1.2-2.9-2.8-3-3.4-3.3-10.2-.4-10.2.4 0 .7.6.8 1.2zm138.4-89.3c-9.5 4.8-17.5 9-17.8 9.3-.3.3.3 2 1.4 3.6l1.8 3.1 5.3-2.4c2.9-1.4 5.4-2.5 5.5-2.5.2 0 1.7 2.2 3.3 4.9 3.4 5.4 8.1 7.7 13.6 6.7 7.2-1.4 13.7-7.9 13.7-13.9 0-3.5-6.7-17.7-8.3-17.7-.7.1-9 4-18.5 8.9zm17.3 4.1c2.2 4.2 1.9 6.6-1.1 8.9-3.4 2.7-6.8 2.7-9.3-.1-2-2-3.7-5.7-2.9-6.1.1-.1 2.6-1.4 5.3-2.8 6.4-3.4 6.2-3.4 8 .1zm-15.3.2c-.7.7-1.2 2.2-1.2 3.4 0 2.1-.2 2.1-3 1.1-1.6-.6-3-1.4-3-1.7 0-.5 6.7-3.8 8-3.9.2-.1-.1.4-.8 1.1zM29.5 81c-4.5 1.8-9.8 10.4-9 14.6.2 1 .4 2.2.4 2.6.5 4.5 21.7 16.8 28.9 16.8 6.8 0 12.1-6.1 12.5-14 .2-6-2.5-8.8-15.2-15.3-11-5.6-13.7-6.4-17.6-4.7zM45 93.4c7.9 3.9 8.5 4.4 8.8 7.5.4 3.8-1.2 6.1-4.2 6.1-2.9 0-18.8-8.4-20.3-10.7-1-1.5-.9-2.4.7-5.1 2.4-3.9 2.6-3.9 15 2.2zM13.7 118c-5.7 6.7-5.8 15.7-.4 20.9 2.5 2.3 18.3 6.1 25.5 6.1 4.7 0 9.6-3 11.8-7.1 2.3-4.5 1.5-13.2-1.4-16.2l-2.2-2.1-2.6 2.6c-2.2 2.1-2.4 2.9-1.5 4.6.6 1.1 1.1 3.4 1.1 5.1 0 5-3.9 6-15 3.7-1.4-.2-4.1-.7-6-1-1.9-.3-4.1-1.3-4.8-2.3-1.6-2.2-.9-6.9 1.5-9.5 1.3-1.4 1.4-2.5.7-4.6-1.3-3.8-3.7-3.8-6.7-.2zm257.6-.6c-4.2 1.9-6.2 5.3-7 11.7-.8 6.6-4.1 10.6-7.3 8.9-3.3-1.8-4.2-5.5-2.4-9.8 1.5-3.6 1.5-3.7-1.2-6s-2.7-2.3-4.7-.4c-4.2 4.3-3.4 16.6 1.4 21 3.9 3.5 7 4.3 11.7 3 6.2-1.7 8.9-5.2 9.8-12.8.7-6.3 1.4-7.9 3.6-8.6 3.5-1.1 6.1 3 5.5 8.4-.4 3.7-.1 4.5 2.1 6.2 3.3 2.7 3.8 2.5 5.1-1.1 4.4-12.8-5.8-25.3-16.6-20.5zM80.5 263.5c-5.7 5.6-.8 14 7 12.1 2.6-.7 4.3-3.1 3-4.4-.3-.4-1.1.1-1.6 1.1-1.2 2.1-6.2 2.3-7.8.3-2-2.4-.9-6.9 2.1-8.5 2.4-1.4 2.8-1.4 4.7.3 1.2 1.1 2.4 1.6 2.9 1.2 1-1.1-3.6-4.6-6-4.6-1 0-3 1.1-4.3 2.5zm15.4.4c-3.4 3.5-3.6 5.9-.8 9.5 4 5.1 11.9 2.3 12.1-4.3.1-2.6-.6-4-2.6-5.8-3.5-3-5.1-2.9-8.7.6zm7.3.3c3 2.4 3.1 5.6.4 8.3-3.9 3.9-7.6 1.8-7.6-4.2 0-4.5 3.9-6.7 7.2-4.1zm8.1-2.5c-1.6.6-1.8 14.3-.3 14.3.6 0 1-1.5 1-3.4 0-3 .2-3.3 2.5-2.8 1.5.2 2.5 0 2.5-.7 0-.6-1.1-1.1-2.5-1.1-2 0-2.5-.5-2.5-2.5 0-2.1.5-2.5 3.3-2.6 2.7 0 2.9-.2 1.2-.9-2.3-1-3.5-1.1-5.2-.3zm12 0l-3.3.4v7c0 3.9.4 6.9 1 6.9s1-1.4 1-3c0-2.5.4-3 2.4-3 1.4 0 2.8-.5 3.1-1 .4-.6-.7-1-2.5-1-2.7 0-3.1-.3-2.8-2.3.2-1.6 1-2.2 2.8-2.3 1.4 0 2.6-.4 2.8-.9.4-1.2-.4-1.3-4.5-.8zm8.4 0c-.4.3-.7 3.7-.7 7.5v6.8h3.6c2.1 0 3.3-.4 2.9-1-.3-.6-1.7-1-3.1-1-2.3 0-2.4-.3-2.4-5.5 0-5.4 0-5.5 3-5.5 1.7 0 3-.5 3-1 0-1.1-5.3-1.4-6.3-.3zm10.6-.1c-.9.4-1.3 2.9-1.3 7.5v6.9h4.1c2.6 0 3.8-.4 3.3-1.1-.3-.6-1.7-.8-3-.5-2.1.6-2.4.3-2.4-2.2 0-2.6.3-2.9 2.5-2.4 1.5.2 2.5 0 2.5-.7 0-.6-1.1-1.1-2.5-1.1-2 0-2.5-.5-2.5-2.5 0-2.1.4-2.5 2.3-2.3 1.2.2 2.3-.2 2.5-.7.3-1.1-3.6-1.7-5.5-.9zm14.7 6.8c0 4.4.4 7.6 1 7.6s1-1.4 1-3c0-2.5.4-3 2.5-3h3.3c.4-.1 1 1.4 1.3 3.2.4 2 .6.1.6-4.7 0-4.4-.2-6.3-.4-4.3-.4 3.6-.6 3.8-3.9 3.8-3.1 0-3.4-.3-3.4-2.9 0-1.7-.4-3.3-1-3.6-.6-.4-1 2.2-1 6.9zm15.5-4.9c-3.9 3.8-3.2 9.6 1.4 11.9 3.1 1.6 6.2.7 8.5-2.6 2.3-3.2 2-6.1-.9-9.2-3-3.3-5.9-3.3-9-.1zm7.7 1.2c2.7 2.4 2.3 6.9-.7 8.9-2.3 1.5-2.7 1.5-5 0-2.9-1.9-3.4-6.6-.9-9 2-2.1 4.3-2 6.6.1zm6.4-2.4c-1.2 2.6-.1 11.8 1.5 12.8 2.5 1.5 5.7 1 7.3-1.3 1.8-2.5 2.2-12.8.6-12.8-.6 0-1 2.7-1 6 0 4.7-.4 6.1-1.8 6.9-3.1 1.7-4.7-.4-5.3-7.1-.3-4.4-.8-5.8-1.3-4.5zm14.4.7c-2.6 2.6-1.3 5.4 2.7 6.5 3.3.8 4.6 2.5 3.1 4.2-1.5 1.8-2.4 1.6-4.7-.8-1.1-1.2-2.1-1.6-2.5-1.1-1 1.7 2.5 4.3 5.2 4 5.3-.6 5.4-6.6.1-7.8-1.5-.4-2.5-1.4-2.7-2.9-.4-2.4.4-2.5 5.1-.6 2.7 1.1 2-1.1-.8-2.3-3.3-1.5-3.1-1.6-5.5.8zm11.7-1.4c-.4.4-.7 3.8-.7 7.6v6.8h4c2.3 0 4-.5 4-1.1 0-.7-1.2-1-3-.7l-3 .5v-5.9c0-5.5.1-5.9 2.3-5.6 1.2.2 2.4-.2 2.7-.7.6-1.1-5.2-2-6.3-.9zM59 277c0 .5 2 1 4.5 1s4.8 0 5.2.1c.4 0 .9-.4 1.1-1 .2-.7-1.7-1.1-5.2-1.1-3.1 0-5.6.4-5.6 1zm169 0c0 .5 2 1 4.5 1s4.8 0 5.2.1c.4 0 .9-.4 1.1-1 .2-.7-1.7-1.1-5.2-1.1-3.1 0-5.6.4-5.6 1z"/></g></svg>