 <svg  version="1.0" xmlns="http://www.w3.org/2000/svg"  width="300.000000pt" height="292.000000pt" viewBox="0 0 300.000000 292.000000"  preserveAspectRatio="xMidYMid meet">  <g transform="translate(0.000000,292.000000) scale(0.100000,-0.100000)" fill="#ffffff" stroke="none"> <path d="M1485 2796 c-6 -29 -27 -303 -27 -350 1 -21 4 -41 7 -45 12 -11 179 -19 193 -8 15 12 16 49 0 65 -7 7 -36 12 -65 12 l-53 0 0 45 0 45 60 0 60 0 0 34 c0 38 -12 46 -69 46 l-37 0 -2 46 -2 46 58 -3 c68 -4 82 3 82 41 0 33 -8 35 -133 43 -62 4 -68 3 -72 -17z m60 -46 c-14 -15 -21 -17 -26 -8 -11 17 -2 28 23 28 21 0 21 -1 3 -20z m10 -139 c3 -5 -8 -19 -24 -30 -26 -19 -29 -19 -26 -4 2 10 4 28 4 41 1 19 4 21 20 12 11 -5 22 -14 26 -19z m-15 -171 c0 -6 -9 -10 -20 -10 -13 0 -20 7 -20 20 0 18 3 19 20 10 11 -6 20 -15 20 -20z"/> <path d="M1240 2791 c-8 -5 -46 -14 -83 -21 -38 -7 -71 -18 -73 -25 -3 -6 13 -88 36 -182 22 -93 40 -178 40 -187 0 -9 7 -19 16 -23 20 -7 171 26 183 41 5 6 7 24 4 40 -6 27 -8 28 -47 22 -23 -3 -51 -8 -62 -12 -18 -5 -24 1 -37 40 l-16 46 42 10 c65 17 67 18 67 42 0 44 -12 50 -64 37 -54 -13 -62 -9 -71 42 l-7 36 47 8 c26 3 54 9 61 12 17 6 18 37 4 64 -12 21 -18 22 -40 10z m-40 -232 c-5 -8 -15 -21 -23 -27 -12 -10 -16 -7 -21 19 -8 41 -1 50 28 36 18 -9 22 -16 16 -28z"/> <path d="M795 2630 c-45 -28 -79 -55 -77 -62 4 -13 67 -128 150 -270 25 -43 50 -78 56 -78 19 1 46 27 46 45 0 9 -16 44 -36 77 -20 32 -35 61 -33 62 2 2 23 15 47 30 l42 26 -15 30 c-9 17 -18 30 -21 30 -2 0 -22 -9 -44 -20 -51 -26 -57 -25 -75 10 -21 40 -19 46 13 59 15 6 38 20 51 30 22 17 23 19 7 49 -9 18 -20 32 -24 31 -4 0 -43 -23 -87 -49z m76 -183 c21 6 21 5 4 -27 l-17 -32 -14 27 c-8 15 -11 32 -7 38 5 8 8 8 10 0 2 -6 13 -8 24 -6z"/> <path d="M2069 2629 c-39 -23 -119 -143 -144 -216 -33 -94 37 -183 143 -183 50 0 70 20 54 55 -9 20 -19 25 -50 25 -28 0 -45 7 -62 25 -21 22 -22 27 -9 57 24 59 94 168 111 174 26 8 75 -22 82 -51 6 -23 11 -26 44 -23 34 3 37 6 35 31 -3 40 -40 87 -87 108 -52 24 -73 23 -117 -2z"/> <path d="M2288 2343 c-122 -125 -139 -154 -118 -209 16 -41 57 -82 97 -95 55 -18 90 2 214 120 110 105 113 109 101 135 -6 14 -20 26 -29 26 -10 -1 -65 -46 -123 -100 -78 -75 -111 -100 -131 -100 -28 0 -59 27 -59 51 0 8 52 66 115 128 l116 114 -22 24 c-13 12 -28 23 -34 23 -6 0 -63 -53 -127 -117z"/> <path d="M468 2376 l-68 -72 78 -75 c239 -230 219 -214 247 -195 14 9 25 23 25 32 0 9 -25 39 -57 68 l-56 53 32 40 c29 36 31 43 19 62 -21 34 -37 33 -73 -6 l-34 -37 -28 20 c-37 28 -35 44 11 95 l40 42 -30 23 c-16 13 -31 23 -34 23 -3 -1 -35 -34 -72 -73z m144 -171 c-2 -19 -7 -35 -11 -35 -4 0 -19 13 -34 28 l-27 29 29 -5 c16 -2 32 1 35 7 11 17 12 13 8 -24z"/> <path d="M1355 2245 c-118 -24 -187 -46 -260 -83 -201 -101 -347 -258 -437 -472 -46 -109 -58 -175 -58 -325 0 -148 11 -213 57 -330 189 -479 743 -699 1211 -480 103 48 192 115 273 205 92 101 144 188 191 324 32 90 40 127 45 215 5 106 -8 264 -26 298 -5 10 -22 51 -37 92 -76 200 -231 369 -429 470 -156 79 -384 116 -530 86z m195 -34 c0 -6 -4 -13 -10 -16 -5 -3 -9 -52 -9 -110 0 -57 -5 -113 -11 -124 -6 -12 -8 -21 -5 -21 3 0 1 -6 -5 -12 -5 -7 -18 -24 -28 -37 -12 -15 -19 -19 -19 -10 -2 75 -32 160 -65 183 -36 26 -54 0 -60 -87 -5 -74 -18 -106 -65 -158 -13 -14 -32 -51 -43 -81 -17 -48 -18 -65 -9 -113 11 -60 41 -120 65 -129 25 -10 54 16 54 48 0 31 12 29 17 -4 5 -34 51 -128 73 -150 12 -12 20 -23 18 -25 -2 -3 -69 -5 -148 -6 -139 -1 -146 -2 -207 -31 -72 -35 -108 -80 -121 -149 -15 -79 11 -168 63 -219 42 -41 43 -52 8 -78 -24 -18 -26 -22 -16 -46 16 -34 74 -62 166 -79 109 -21 561 -16 632 7 61 19 110 49 124 74 8 15 6 23 -10 38 -17 15 -36 19 -100 18 -45 0 -79 4 -79 10 0 5 14 34 31 65 35 62 71 159 64 171 -3 5 -1 10 4 12 4 1 11 37 14 79 5 67 4 80 -13 99 -21 24 -28 25 -347 29 -30 1 -43 5 -43 15 0 8 5 16 10 18 6 2 12 48 14 103 3 78 8 110 25 142 25 51 41 62 42 31 2 -59 17 -109 45 -145 43 -56 76 -35 81 50 4 87 11 107 57 171 65 91 77 186 36 272 -29 58 -57 75 -81 45 -9 -11 -15 -29 -12 -40 3 -10 1 -21 -5 -25 -5 -3 -15 20 -21 52 -7 31 -26 81 -41 110 l-29 54 42 -7 c267 -44 517 -235 628 -480 67 -148 74 -185 73 -375 0 -123 -4 -184 -14 -205 -7 -16 -14 -34 -16 -40 -5 -21 -67 -160 -73 -165 -3 -3 -15 -22 -26 -43 -26 -50 -142 -176 -205 -222 -59 -43 -161 -98 -215 -114 -22 -7 -49 -16 -60 -21 -85 -36 -314 -41 -435 -11 -96 24 -147 43 -207 76 -205 115 -340 282 -418 516 -25 75 -28 98 -29 224 -1 77 2 154 5 170 16 71 22 93 42 145 80 204 207 350 397 454 87 47 151 68 315 100 42 8 155 6 155 -3z m39 -63 c52 -109 60 -231 20 -309 -11 -23 -40 -65 -64 -94 -67 -82 -88 -150 -82 -262 2 -51 1 -93 -3 -93 -8 0 -24 33 -52 109 -16 42 -19 69 -16 125 6 81 29 136 87 199 64 70 84 120 85 212 1 44 -3 97 -7 118 -11 50 6 48 32 -5z m-189 -134 c24 -55 26 -140 5 -190 -8 -19 -31 -55 -52 -80 -36 -45 -37 -48 -43 -147 l-5 -102 -25 50 c-19 38 -25 66 -25 117 0 59 3 71 32 110 84 112 95 145 83 236 -3 28 -3 52 2 52 5 0 18 -21 28 -46z m350 -11 c30 -79 23 -158 -17 -214 -15 -21 -38 -53 -50 -69 -25 -36 -38 -119 -28 -179 4 -23 4 -41 1 -41 -3 0 -17 23 -32 52 -22 44 -26 61 -22 119 3 62 7 72 49 126 62 79 72 109 67 193 -2 38 0 70 3 70 4 0 17 -26 29 -57z m88 -760 c-14 -155 -69 -276 -161 -359 -28 -25 -43 -43 -32 -39 26 9 67 13 188 19 75 3 97 1 97 -9 0 -18 -85 -52 -161 -64 -80 -13 -484 -14 -562 -1 -68 11 -175 57 -161 69 5 4 70 5 144 1 74 -3 137 -5 138 -4 2 1 -11 16 -30 33 -29 26 -41 30 -91 31 -32 0 -70 6 -85 14 -39 21 -89 75 -106 118 -42 101 11 238 92 238 12 0 25 7 28 15 5 13 54 15 358 15 l352 0 -8 -77z"/> <path d="M1085 1218 c-61 -53 -33 -178 51 -225 21 -13 51 -23 65 -23 l26 0 -29 59 c-16 32 -35 91 -42 132 -14 84 -27 94 -71 57z m33 -60 c0 -7 7 -37 15 -65 9 -29 13 -53 10 -53 -3 0 -16 12 -29 28 -30 34 -33 102 -4 102 4 0 7 -6 8 -12z"/> <path d="M2502 2051 c-95 -48 -175 -90 -178 -93 -3 -3 3 -20 14 -36 l18 -31 53 24 c29 14 54 25 55 25 2 0 17 -22 33 -49 34 -54 81 -77 136 -67 72 14 137 79 137 139 0 35 -67 177 -83 177 -7 -1 -90 -40 -185 -89z m173 -41 c22 -42 19 -66 -11 -89 -34 -27 -68 -27 -93 1 -20 20 -37 57 -29 61 1 1 26 14 53 28 64 34 62 34 80 -1z m-153 -2 c-7 -7 -12 -22 -12 -34 0 -21 -2 -21 -30 -11 -16 6 -30 14 -30 17 0 5 67 38 80 39 2 1 -1 -4 -8 -11z"/> <path d="M295 2110 c-45 -18 -98 -104 -90 -146 2 -10 4 -22 4 -26 5 -45 217 -168 289 -168 68 0 121 61 125 140 2 60 -25 88 -152 153 -110 56 -137 64 -176 47z m155 -124 c79 -39 85 -44 88 -75 4 -38 -12 -61 -42 -61 -29 0 -188 84 -203 107 -10 15 -9 24 7 51 24 39 26 39 150 -22z"/> <path d="M137 1740 c-57 -67 -58 -157 -4 -209 25 -23 183 -61 255 -61 47 0 96 30 118 71 23 45 15 132 -14 162 l-22 21 -26 -26 c-22 -21 -24 -29 -15 -46 6 -11 11 -34 11 -51 0 -50 -39 -60 -150 -37 -14 2 -41 7 -60 10 -19 3 -41 13 -48 23 -16 22 -9 69 15 95 13 14 14 25 7 46 -13 38 -37 38 -67 2z"/> <path d="M2713 1746 c-42 -19 -62 -53 -70 -117 -8 -66 -41 -106 -73 -89 -33 18 -42 55 -24 98 15 36 15 37 -12 60 -27 23 -27 23 -47 4 -42 -43 -34 -166 14 -210 39 -35 70 -43 117 -30 62 17 89 52 98 128 7 63 14 79 36 86 35 11 61 -30 55 -84 -4 -37 -1 -45 21 -62 33 -27 38 -25 51 11 44 128 -58 253 -166 205z"/> <path d="M805 285 c-57 -56 -8 -140 70 -121 26 7 43 31 30 44 -3 4 -11 -1 -16 -11 -12 -21 -62 -23 -78 -3 -20 24 -9 69 21 85 24 14 28 14 47 -3 12 -11 24 -16 29 -12 10 11 -36 46 -60 46 -10 0 -30 -11 -43 -25z"/> <path d="M959 281 c-34 -35 -36 -59 -8 -95 40 -51 119 -23 121 43 1 26 -6 40 -26 58 -35 30 -51 29 -87 -6z m73 -3 c30 -24 31 -56 4 -83 -39 -39 -76 -18 -76 42 0 45 39 67 72 41z"/> <path d="M1113 303 c-16 -6 -18 -143 -3 -143 6 0 10 15 10 34 0 30 2 33 25 28 15 -2 25 0 25 7 0 6 -11 11 -25 11 -20 0 -25 5 -25 25 0 21 5 25 33 26 27 0 29 2 12 9 -23 10 -35 11 -52 3z"/> <path d="M1233 303 l-33 -4 0 -70 c0 -39 4 -69 10 -69 6 0 10 14 10 30 0 25 4 30 24 30 14 0 28 5 31 10 4 6 -7 10 -25 10 -27 0 -31 3 -28 23 2 16 10 22 28 23 14 0 26 4 28 9 4 12 -4 13 -45 8z"/> <path d="M1317 303 c-4 -3 -7 -37 -7 -75 l0 -68 36 0 c21 0 33 4 29 10 -3 6 -17 10 -31 10 -23 0 -24 3 -24 55 0 54 0 55 30 55 17 0 30 5 30 10 0 11 -53 14 -63 3z"/> <path d="M1423 304 c-9 -4 -13 -29 -13 -75 l0 -69 41 0 c26 0 38 4 33 11 -3 6 -17 8 -30 5 -21 -6 -24 -3 -24 22 0 26 3 29 25 24 15 -2 25 0 25 7 0 6 -11 11 -25 11 -20 0 -25 5 -25 25 0 21 4 25 23 23 12 -2 23 2 25 7 3 11 -36 17 -55 9z"/> <path d="M1570 236 c0 -44 4 -76 10 -76 6 0 10 14 10 30 0 25 4 30 25 30 14 0 28 0 33 0 4 1 10 -14 13 -32 4 -20 6 -1 6 47 0 44 -2 63 -4 43 -4 -36 -6 -38 -39 -38 -31 0 -34 3 -34 29 0 17 -4 33 -10 36 -6 4 -10 -22 -10 -69z"/> <path d="M1725 285 c-39 -38 -32 -96 14 -119 31 -16 62 -7 85 26 23 32 20 61 -9 92 -30 33 -59 33 -90 1z m77 -12 c27 -24 23 -69 -7 -89 -23 -15 -27 -15 -50 0 -29 19 -34 66 -9 90 20 21 43 20 66 -1z"/> <path d="M1866 297 c-12 -26 -1 -118 15 -128 25 -15 57 -10 73 13 18 25 22 128 6 128 -6 0 -10 -27 -10 -60 0 -47 -4 -61 -18 -69 -31 -17 -47 4 -53 71 -3 44 -8 58 -13 45z"/> <path d="M2010 290 c-26 -26 -13 -54 27 -65 33 -8 46 -25 31 -42 -15 -18 -24 -16 -47 8 -11 12 -21 16 -25 11 -10 -17 25 -43 52 -40 53 6 54 66 1 78 -15 4 -25 14 -27 29 -4 24 4 25 51 6 27 -11 20 11 -8 23 -33 15 -31 16 -55 -8z"/> <path d="M2127 304 c-4 -4 -7 -38 -7 -76 l0 -68 40 0 c23 0 40 5 40 11 0 7 -12 10 -30 7 l-30 -5 0 59 c0 55 1 59 23 56 12 -2 24 2 27 7 6 11 -52 20 -63 9z"/> <path d="M590 150 c0 -5 20 -10 45 -10 25 0 48 0 52 -1 4 0 9 4 11 10 2 7 -17 11 -52 11 -31 0 -56 -4 -56 -10z"/> <path d="M2280 150 c0 -5 20 -10 45 -10 25 0 48 0 52 -1 4 0 9 4 11 10 2 7 -17 11 -52 11 -31 0 -56 -4 -56 -10z"/> </g> </svg> 